<svg version="1.1" xmlns="http://www.w3.org/2000/svg" xmlns:xlink="http://www.w3.org/1999/xlink"
    width="24px" height="24px" viewBox="0,0,256,256">
    <defs>
        <linearGradient x1="3.879" y1="3.879" x2="20.121" y2="20.121" gradientUnits="userSpaceOnUse"
            id="color-1">
            <stop offset="0" stop-color="#a855f7"></stop>
            <stop offset="1" stop-color="#1a023d"></stop>
        </linearGradient>
        <linearGradient x1="3.879" y1="3.879" x2="20.121" y2="20.121" gradientUnits="userSpaceOnUse"
            id="color-2">
            <stop offset="0" stop-color="#a855f7"></stop>
            <stop offset="0.493" stop-color="#a39fa8" stop-opacity="0.94902"></stop>
            <stop offset="0.997" stop-color="#1a023d"></stop>
        </linearGradient>
        <linearGradient x1="6.689" y1="1.068" x2="17.311" y2="11.689" gradientUnits="userSpaceOnUse"
            id="color-3">
            <stop offset="0" stop-color="#a855f7" stop-opacity="0.94902"></stop>
            <stop offset="0.519" stop-color="#170537" stop-opacity="0.36078"></stop>
            <stop offset="1" stop-color="#1a023d"></stop>
        </linearGradient>
    </defs>
    <g fill="none" fill-rule="nonzero" stroke="none" stroke-width="1" stroke-linecap="butt"
        stroke-linejoin="miter" stroke-miterlimit="10" stroke-dasharray="" stroke-dashoffset="0"
        font-family="none" font-weight="none" font-size="none" text-anchor="none"
        style="mix-blend-mode: normal">
        <g transform="scale(10.66667,10.66667)">
            <path
                d="M19,4h-14c-1.657,0 -3,1.343 -3,3v10c0,1.657 1.343,3 3,3h14c1.657,0 3,-1.343 3,-3v-10c0,-1.657 -1.343,-3 -3,-3z"
                fill="url(#color-1)"></path>
            <path
                d="M19,4.5c1.378,0 2.5,1.121 2.5,2.5v10c0,1.379 -1.122,2.5 -2.5,2.5h-14c-1.378,0 -2.5,-1.121 -2.5,-2.5v-10c0,-1.379 1.122,-2.5 2.5,-2.5h14M19,4h-14c-1.657,0 -3,1.343 -3,3v10c0,1.657 1.343,3 3,3h14c1.657,0 3,-1.343 3,-3v-10c0,-1.657 -1.343,-3 -3,-3z"
                fill="url(#color-2)"></path>
            <path
                d="M9.942,11.765l-7.942,-4.765c0,-1.657 1.343,-3 3,-3h14c1.657,0 3,1.343 3,3l-7.942,4.765c-1.267,0.76 -2.849,0.76 -4.116,0z"
                fill="url(#color-3)"></path>
        </g>
    </g>
</svg>