<svg version="1.1" xmlns="http://www.w3.org/2000/svg" xmlns:xlink="http://www.w3.org/1999/xlink"
    width="24px" height="24px" viewBox="0,0,256,256">
    <defs>
        <linearGradient x1="5.95" y1="4.736" x2="18.05" y2="16.837" gradientUnits="userSpaceOnUse"
            id="color-1">
            <stop offset="0" stop-color="#a855f7" stop-opacity="0.94902"></stop>
            <stop offset="1" stop-color="#1a023d"></stop>
        </linearGradient>
        <linearGradient x1="5.95" y1="4.736" x2="18.05" y2="16.837" gradientUnits="userSpaceOnUse"
            id="color-2">
            <stop offset="0" stop-color="#a855f7" stop-opacity="0.94902"></stop>
            <stop offset="0.493" stop-color="#a39fa8" stop-opacity="0.94902"></stop>
            <stop offset="0.997" stop-color="#1a023d"></stop>
        </linearGradient>
        <linearGradient x1="9.879" y1="7.879" x2="14.121" y2="12.121" gradientUnits="userSpaceOnUse"
            id="color-3">
            <stop offset="0" stop-color="#a855f7" stop-opacity="0.94902"></stop>
            <stop offset="0.519" stop-color="#a39fa8" stop-opacity="0.94902"></stop>
            <stop offset="1" stop-color="#b8b8b8" stop-opacity="0.98039"></stop>
        </linearGradient>
    </defs>
    <g fill="none" fill-rule="nonzero" stroke="none" stroke-width="1" stroke-linecap="butt"
        stroke-linejoin="miter" stroke-miterlimit="10" stroke-dasharray="" stroke-dashoffset="0"
        font-family="none" font-weight="none" font-size="none" text-anchor="none"
        style="mix-blend-mode: normal">
        <g transform="scale(10.66667,10.66667)">
            <path
                d="M4,10c0,-4.418 3.582,-8 8,-8c4.418,0 8,3.582 8,8c0,3.564 -4.064,8.652 -6.399,11.28c-0.851,0.958 -2.351,0.958 -3.202,0c-2.335,-2.628 -6.399,-7.716 -6.399,-11.28z"
                fill="url(#color-1)"></path>
            <path
                d="M12,2.5c4.136,0 7.5,3.364 7.5,7.5c0,3.507 -4.387,8.825 -6.273,10.948c-0.311,0.35 -0.758,0.551 -1.227,0.551c-0.469,0 -0.916,-0.201 -1.227,-0.551c-1.886,-2.123 -6.273,-7.441 -6.273,-10.948c0,-4.136 3.364,-7.5 7.5,-7.5M12,2c-4.418,0 -8,3.582 -8,8c0,3.564 4.064,8.652 6.399,11.28c0.426,0.479 1.013,0.719 1.601,0.719c0.588,0 1.175,-0.24 1.601,-0.719c2.335,-2.628 6.399,-7.716 6.399,-11.28c0,-4.418 -3.582,-8 -8,-8z"
                fill="url(#color-2)"></path>
            <circle cx="12" cy="10" r="3" fill="url(#color-3)"></circle>
        </g>
    </g>
</svg>