<svg version="1.1" xmlns="http://www.w3.org/2000/svg" xmlns:xlink="http://www.w3.org/1999/xlink"
    width="24px" height="24px" viewBox="0,0,256,256">
    <defs>
        <linearGradient x1="3.207" y1="4.971" x2="19.029" y2="20.793" gradientUnits="userSpaceOnUse"
            id="color-1">
            <stop offset="0" stop-color="#a855f7" stop-opacity="0.94902"></stop>
            <stop offset="1" stop-color="#1a023d"></stop>
        </linearGradient>
        <linearGradient x1="3.207" y1="4.971" x2="19.029" y2="20.793" gradientUnits="userSpaceOnUse"
            id="color-2">
            <stop offset="0" stop-color="#a855f7" stop-opacity="0.94902"></stop>
            <stop offset="0.493" stop-color="#a39fa8" stop-opacity="0.94902"></stop>
            <stop offset="0.997" stop-color="#1a023d"></stop>
        </linearGradient>
    </defs>
    <g fill="none" fill-rule="nonzero" stroke="none" stroke-width="1" stroke-linecap="butt"
        stroke-linejoin="miter" stroke-miterlimit="10" stroke-dasharray="" stroke-dashoffset="0"
        font-family="none" font-weight="none" font-size="none" text-anchor="none"
        style="mix-blend-mode: normal">
        <g transform="scale(10.66667,10.66667)">
            <path
                d="M19.908,14.64c-1.455,-1.455 -3.814,-1.456 -5.271,-0.003v0c-0.001,0.001 -0.003,0.001 -0.004,0.002l-0.929,0.929l-5.274,-5.274l0.93,-0.928c0.001,-0.001 0.001,-0.003 0.002,-0.004v0c1.453,-1.457 1.453,-3.815 -0.003,-5.271c-1.454,-1.454 -3.813,-1.455 -5.27,-0.002v0c0,0.002 -0.002,0.002 -0.003,0.003c-0.931,0.931 -1.26,2.23 -1.001,3.428c0.222,1.653 1.091,5.452 4.517,8.878c3.426,3.426 7.224,4.295 8.878,4.517c1.198,0.259 2.497,-0.07 3.428,-1.001c0.001,-0.001 0.001,-0.003 0.002,-0.004v0c1.454,-1.456 1.453,-3.815 -0.002,-5.27z"
                fill="url(#color-1)"></path>
            <path
                d="M6.723,3.5c0.862,0 1.673,0.336 2.283,0.946c1.258,1.258 1.259,3.305 -0.007,4.573l-0.016,0.017l-0.906,0.906l-0.354,0.354l0.354,0.354l5.274,5.274l0.354,0.354l0.354,-0.354l0.884,-0.884l0.082,-0.048l0.028,-0.059c0.602,-0.57 1.387,-0.884 2.22,-0.884c0.862,0 1.673,0.336 2.283,0.946c1.258,1.258 1.258,3.305 0.002,4.563l-0.047,0.047c-0.601,0.578 -1.39,0.896 -2.231,0.896c-0.233,0 -0.466,-0.025 -0.733,-0.081c-1.464,-0.196 -5.232,-1.016 -8.591,-4.375c-3.359,-3.359 -4.178,-7.127 -4.381,-8.63c-0.23,-1.062 0.077,-2.151 0.823,-2.925l0.081,-0.048l0.027,-0.059c0.601,-0.57 1.385,-0.883 2.217,-0.883M6.724,3c-0.954,0 -1.907,0.363 -2.635,1.089v0c0,0.002 -0.002,0.002 -0.003,0.003c-0.931,0.931 -1.26,2.23 -1.001,3.428c0.222,1.653 1.091,5.452 4.517,8.878c3.426,3.426 7.224,4.295 8.878,4.517c0.263,0.056 0.531,0.085 0.799,0.085c0.952,0 1.902,-0.36 2.628,-1.086c0.001,-0.001 0.001,-0.003 0.002,-0.004v0c1.453,-1.456 1.453,-3.815 -0.003,-5.271c-0.728,-0.728 -1.682,-1.092 -2.637,-1.092c-0.953,0 -1.906,0.363 -2.634,1.089v0c-0.001,0.001 -0.003,0.001 -0.004,0.002l-0.929,0.929l-5.274,-5.274l0.932,-0.927c0.001,-0.001 0.001,-0.003 0.002,-0.004v0c1.453,-1.457 1.453,-3.815 -0.003,-5.271c-0.727,-0.727 -1.681,-1.091 -2.635,-1.091z"
                fill="url(#color-2)"></path>
        </g>
    </g>
</svg>